<svg width="20" height="20" viewBox="0 0 98 100" fill="none" xmlns="http://www.w3.org/2000/svg">
<g clip-path="url(#clip0_36_2)">
<path d="M97.6634 50.9355C97.6634 46.8386 97.331 43.8489 96.6115 40.7485H49.8283V59.2401H77.289C76.7356 63.8355 73.7459 70.7561 67.102 75.4065L67.0088 76.0256L81.8008 87.4847L82.8256 87.587C92.2375 78.8947 97.6634 66.1053 97.6634 50.9355Z" fill="#4285F4"/>
<path d="M49.8283 99.6565C63.2817 99.6565 74.576 95.2271 82.8256 87.587L67.102 75.4065C62.8943 78.3408 57.247 80.3893 49.8283 80.3893C36.6516 80.3893 25.468 71.6973 21.4814 59.6832L20.897 59.7328L5.51609 71.6363L5.31494 72.1954C13.5088 88.4725 30.3397 99.6565 49.8283 99.6565Z" fill="#34A853"/>
<path d="M21.4814 59.6832C20.4294 56.5828 19.8207 53.2607 19.8207 49.8282C19.8207 46.3954 20.4295 43.0737 21.426 39.9733L21.3982 39.313L5.82449 27.2183L5.31495 27.4607C1.93785 34.2153 6.10352e-05 41.8004 6.10352e-05 49.8282C6.10352e-05 57.8561 1.93785 65.4408 5.31495 72.1954L21.4814 59.6832Z" fill="#FBBC05"/>
<path d="M49.8283 19.2668C59.1848 19.2668 65.4962 23.3084 69.0951 26.6859L83.1577 12.9553C74.521 4.92748 63.2817 0 49.8283 0C30.3397 0 13.5088 11.1836 5.31494 27.4607L21.426 39.9733C25.468 27.9592 36.6516 19.2668 49.8283 19.2668Z" fill="#EB4335"/>
</g>
<defs>
<clipPath id="clip0_36_2">
<rect width="97.71" height="100" fill="white"/>
</clipPath>
</defs>
</svg>
