<svg width="222" height="222" viewBox="0 0 222 222" fill="none" xmlns="http://www.w3.org/2000/svg">
<path d="M171.526 24.6667H183.835V39.4112H171.526V24.6667Z" fill="#66757F"/>
<path d="M178.833 24.6667H55.5C48.958 24.6667 42.684 27.2655 38.0581 31.8914C33.4322 36.5173 30.8334 42.7913 30.8334 49.3334V197.333C30.8334 203.875 33.4322 210.149 38.0581 214.775C42.684 219.401 48.958 222 55.5 222H178.833C185.375 222 191.649 219.401 196.275 214.775C200.901 210.149 203.5 203.875 203.5 197.333V49.3334C203.5 42.7913 200.901 36.5173 196.275 31.8914C191.649 27.2655 185.375 24.6667 178.833 24.6667Z" fill="#55ACEE"/>
<path d="M166.5 24.6667H43.1667C36.6247 24.6667 30.3506 27.2655 25.7247 31.8914C21.0988 36.5173 18.5 42.7913 18.5 49.3334V197.333C18.5 203.875 21.0988 210.149 25.7247 214.775C30.3506 219.401 36.6247 222 43.1667 222H166.5C173.042 222 179.316 219.401 183.942 214.775C188.568 210.149 191.167 203.875 191.167 197.333V49.3334C191.167 42.7913 188.568 36.5173 183.942 31.8914C179.316 27.2655 173.042 24.6667 166.5 24.6667Z" fill="#CCD6DD"/>
<path d="M48.322 53.8411C43.993 53.8411 40.4841 49.7341 40.4841 44.659C40.4841 39.59 43.993 35.4768 48.322 35.4768C52.6448 35.4768 56.1536 39.59 56.1536 44.659C56.1536 49.728 52.6448 53.8411 48.322 53.8411Z" fill="#292F33"/>
<path d="M52.6818 43.6785C52.3426 40.7185 50.3754 38.7945 48.1863 37.407C45.1954 35.5138 42.0196 31.191 42.0196 25.8322C42.0196 19.0242 46.1574 12.913 51.2696 12.913C56.3818 12.913 60.5196 18.4938 60.5196 24.6605H72.8283C72.6988 12.3272 63.1158 1.09766 51.2696 1.09766C39.3433 1.09766 29.6863 12.3148 29.6863 25.7952C29.6863 37.222 36.1304 46.583 45.5284 50.0055C50.2151 51.7075 53.0764 47.249 52.6818 43.6785Z" fill="#66757F"/>
<path d="M85.322 53.8411C80.993 53.8411 77.4841 49.7341 77.4841 44.659C77.4841 39.59 80.993 35.4768 85.322 35.4768C89.6448 35.4768 93.1536 39.59 93.1536 44.659C93.1536 49.728 89.6448 53.8411 85.322 53.8411Z" fill="#292F33"/>
<path d="M89.6818 43.6785C89.3426 40.7185 87.3754 38.7945 85.1863 37.407C82.1954 35.5138 79.0196 31.191 79.0196 25.8322C79.0196 19.0242 83.1574 12.913 88.2696 12.913C93.3818 12.913 97.5196 18.4938 97.5196 24.6605H109.828C109.705 12.3272 100.116 1.09766 88.2696 1.09766C76.3433 1.09766 66.6863 12.3148 66.6863 25.7952C66.6863 37.222 73.1304 46.583 82.5284 50.0055C87.2151 51.7075 90.0764 47.249 89.6818 43.6785Z" fill="#66757F"/>
<path d="M122.322 53.8411C117.993 53.8411 114.484 49.7341 114.484 44.659C114.484 39.59 117.993 35.4768 122.322 35.4768C126.645 35.4768 130.16 39.59 130.16 44.659C130.154 49.728 126.645 53.8411 122.322 53.8411Z" fill="#292F33"/>
<path d="M126.682 43.6785C126.343 40.7185 124.376 38.7945 122.193 37.407C119.202 35.5138 116.026 31.191 116.026 25.8322C116.026 19.0242 120.164 12.913 125.276 12.913C130.388 12.913 134.526 18.4938 134.526 24.6605H146.835C146.711 12.3272 137.122 1.09766 125.276 1.09766C113.35 1.09766 103.693 12.3148 103.693 25.7952C103.693 37.222 110.137 46.583 119.535 50.0055C124.215 51.7075 127.076 47.249 126.682 43.6785Z" fill="#66757F"/>
<path d="M159.322 53.8411C154.993 53.8411 151.484 49.7341 151.484 44.659C151.484 39.59 154.993 35.4768 159.322 35.4768C163.645 35.4768 167.16 39.59 167.16 44.659C167.154 49.728 163.645 53.8411 159.322 53.8411Z" fill="#292F33"/>
<path d="M163.682 43.6785C163.343 40.7185 161.376 38.7945 159.193 37.407C156.202 35.5138 153.026 31.191 153.026 25.8322C153.026 19.0242 157.164 12.913 162.276 12.913C167.388 12.913 171.526 18.4938 171.526 24.6605H183.835C183.711 12.3272 174.122 1.09766 162.276 1.09766C150.35 1.09766 140.693 12.3148 140.693 25.7952C140.693 37.222 147.137 46.583 156.535 50.0055C161.215 51.7075 164.076 47.249 163.682 43.6785Z" fill="#66757F"/>
<path d="M85.7567 117.393C83.9751 115.612 81.0902 115.602 79.2965 117.371L64.2924 132.167C62.3529 134.08 59.2391 134.088 57.2896 132.185L51.7116 126.742C49.9107 124.985 47.0314 125.002 45.2518 126.781V126.781C43.4561 128.576 43.4561 131.487 45.2518 133.282L57.2651 145.292C59.2175 147.243 62.3825 147.243 64.3349 145.292L85.7567 123.877C87.5477 122.087 87.5477 119.183 85.7567 117.393V117.393ZM85.7567 79.2181C83.9751 77.4371 81.0902 77.4273 79.2965 79.1961L64.2924 93.9924C62.3529 95.9051 59.2391 95.9133 57.2896 94.0108L51.7116 88.5675C49.9107 86.8101 47.0314 86.8274 45.2518 88.6064V88.6064C43.4561 90.4016 43.4561 93.3127 45.2518 95.1079L57.2651 107.117C59.2175 109.069 62.3825 109.069 64.3349 107.117L85.7567 85.7026C87.5477 83.9121 87.5477 81.0085 85.7567 79.2181V79.2181ZM85.7567 155.567C83.9751 153.786 81.0902 153.776 79.2965 155.545L64.2924 170.342C62.3529 172.254 59.2391 172.263 57.2896 170.36L51.7116 164.917C49.9107 163.159 47.0314 163.177 45.2518 164.956V164.956C43.4561 166.751 43.4561 169.662 45.2518 171.457L57.2651 183.466C59.2175 185.418 62.3825 185.418 64.3349 183.466L85.7567 162.052C87.5477 160.261 87.5477 157.358 85.7567 155.567V155.567Z" fill="#99AAB5"/>
<path d="M101 131.5C101 128.223 103.656 125.567 106.933 125.567H153.067C156.344 125.567 159 128.223 159 131.5V131.5C159 134.777 156.344 137.433 153.067 137.433H106.933C103.656 137.433 101 134.777 101 131.5V131.5ZM101 92.9333C101 89.6564 103.656 87 106.933 87H153.067C156.344 87 159 89.6564 159 92.9333V92.9333C159 96.2102 156.344 98.8667 153.067 98.8667H106.933C103.656 98.8667 101 96.2102 101 92.9333V92.9333ZM101 170.067C101 166.79 103.656 164.133 106.933 164.133H153.067C156.344 164.133 159 166.79 159 170.067V170.067C159 173.344 156.344 176 153.067 176H106.933C103.656 176 101 173.344 101 170.067V170.067Z" fill="#99AAB5"/>
</svg>
