<svg width="222" height="222" viewBox="0 0 222 222" fill="none" xmlns="http://www.w3.org/2000/svg">
<path d="M171.526 24.6667H183.835V39.4112H171.526V24.6667Z" fill="#66757F"/>
<path d="M178.833 24.6667H55.5C48.958 24.6667 42.684 27.2655 38.0581 31.8914C33.4322 36.5173 30.8334 42.7913 30.8334 49.3334V197.333C30.8334 203.875 33.4322 210.149 38.0581 214.775C42.684 219.401 48.958 222 55.5 222H178.833C185.375 222 191.649 219.401 196.275 214.775C200.901 210.149 203.5 203.875 203.5 197.333V49.3334C203.5 42.7913 200.901 36.5173 196.275 31.8914C191.649 27.2655 185.375 24.6667 178.833 24.6667Z" fill="#55ACEE"/>
<path d="M166.5 24.6667H43.1667C36.6247 24.6667 30.3506 27.2655 25.7247 31.8914C21.0988 36.5173 18.5 42.7913 18.5 49.3334V197.333C18.5 203.875 21.0988 210.149 25.7247 214.775C30.3506 219.401 36.6247 222 43.1667 222H166.5C173.042 222 179.316 219.401 183.942 214.775C188.568 210.149 191.167 203.875 191.167 197.333V49.3334C191.167 42.7913 188.568 36.5173 183.942 31.8914C179.316 27.2655 173.042 24.6667 166.5 24.6667Z" fill="#CCD6DD"/>
<path d="M172.667 92.5C172.667 94.1355 172.017 95.704 170.86 96.8605C169.704 98.0169 168.135 98.6666 166.5 98.6666H43.1667C41.5312 98.6666 39.9627 98.0169 38.8062 96.8605C37.6497 95.704 37 94.1355 37 92.5C37 90.8645 37.6497 89.296 38.8062 88.1395C39.9627 86.983 41.5312 86.3333 43.1667 86.3333H166.5C168.135 86.3333 169.704 86.983 170.86 88.1395C172.017 89.296 172.667 90.8645 172.667 92.5ZM172.667 123.333C172.667 124.969 172.017 126.537 170.86 127.694C169.704 128.85 168.135 129.5 166.5 129.5H43.1667C41.5312 129.5 39.9627 128.85 38.8062 127.694C37.6497 126.537 37 124.969 37 123.333C37 121.698 37.6497 120.129 38.8062 118.973C39.9627 117.816 41.5312 117.167 43.1667 117.167H166.5C168.135 117.167 169.704 117.816 170.86 118.973C172.017 120.129 172.667 121.698 172.667 123.333ZM172.667 154.167C172.667 155.802 172.017 157.371 170.86 158.527C169.704 159.684 168.135 160.333 166.5 160.333H43.1667C41.5312 160.333 39.9627 159.684 38.8062 158.527C37.6497 157.371 37 155.802 37 154.167C37 152.531 37.6497 150.963 38.8062 149.806C39.9627 148.65 41.5312 148 43.1667 148H166.5C168.135 148 169.704 148.65 170.86 149.806C172.017 150.963 172.667 152.531 172.667 154.167ZM123.333 185C123.333 186.635 122.684 188.204 121.527 189.36C120.371 190.517 118.802 191.167 117.167 191.167H43.1667C41.5312 191.167 39.9627 190.517 38.8062 189.36C37.6497 188.204 37 186.635 37 185C37 183.364 37.6497 181.796 38.8062 180.639C39.9627 179.483 41.5312 178.833 43.1667 178.833H117.167C118.802 178.833 120.371 179.483 121.527 180.639C122.684 181.796 123.333 183.364 123.333 185Z" fill="#99AAB5"/>
<path d="M48.322 53.8411C43.993 53.8411 40.4841 49.7341 40.4841 44.659C40.4841 39.59 43.993 35.4768 48.322 35.4768C52.6448 35.4768 56.1536 39.59 56.1536 44.659C56.1536 49.728 52.6448 53.8411 48.322 53.8411Z" fill="#292F33"/>
<path d="M52.6818 43.6785C52.3426 40.7185 50.3754 38.7945 48.1863 37.407C45.1954 35.5138 42.0196 31.191 42.0196 25.8322C42.0196 19.0242 46.1574 12.913 51.2696 12.913C56.3818 12.913 60.5196 18.4938 60.5196 24.6605H72.8283C72.6988 12.3272 63.1158 1.09766 51.2696 1.09766C39.3433 1.09766 29.6863 12.3148 29.6863 25.7952C29.6863 37.222 36.1304 46.583 45.5284 50.0055C50.2151 51.7075 53.0764 47.249 52.6818 43.6785Z" fill="#66757F"/>
<path d="M85.322 53.8411C80.993 53.8411 77.4841 49.7341 77.4841 44.659C77.4841 39.59 80.993 35.4768 85.322 35.4768C89.6448 35.4768 93.1536 39.59 93.1536 44.659C93.1536 49.728 89.6448 53.8411 85.322 53.8411Z" fill="#292F33"/>
<path d="M89.6818 43.6785C89.3426 40.7185 87.3754 38.7945 85.1863 37.407C82.1954 35.5138 79.0196 31.191 79.0196 25.8322C79.0196 19.0242 83.1574 12.913 88.2696 12.913C93.3818 12.913 97.5196 18.4938 97.5196 24.6605H109.828C109.705 12.3272 100.116 1.09766 88.2696 1.09766C76.3433 1.09766 66.6863 12.3148 66.6863 25.7952C66.6863 37.222 73.1304 46.583 82.5284 50.0055C87.2151 51.7075 90.0764 47.249 89.6818 43.6785Z" fill="#66757F"/>
<path d="M122.322 53.8411C117.993 53.8411 114.484 49.7341 114.484 44.659C114.484 39.59 117.993 35.4768 122.322 35.4768C126.645 35.4768 130.16 39.59 130.16 44.659C130.154 49.728 126.645 53.8411 122.322 53.8411Z" fill="#292F33"/>
<path d="M126.682 43.6785C126.343 40.7185 124.376 38.7945 122.193 37.407C119.202 35.5138 116.026 31.191 116.026 25.8322C116.026 19.0242 120.164 12.913 125.276 12.913C130.388 12.913 134.526 18.4938 134.526 24.6605H146.835C146.711 12.3272 137.122 1.09766 125.276 1.09766C113.35 1.09766 103.693 12.3148 103.693 25.7952C103.693 37.222 110.137 46.583 119.535 50.0055C124.215 51.7075 127.076 47.249 126.682 43.6785Z" fill="#66757F"/>
<path d="M159.322 53.8411C154.993 53.8411 151.484 49.7341 151.484 44.659C151.484 39.59 154.993 35.4768 159.322 35.4768C163.645 35.4768 167.16 39.59 167.16 44.659C167.154 49.728 163.645 53.8411 159.322 53.8411Z" fill="#292F33"/>
<path d="M163.682 43.6785C163.343 40.7185 161.376 38.7945 159.193 37.407C156.202 35.5138 153.026 31.191 153.026 25.8322C153.026 19.0242 157.164 12.913 162.276 12.913C167.388 12.913 171.526 18.4938 171.526 24.6605H183.835C183.711 12.3272 174.122 1.09766 162.276 1.09766C150.35 1.09766 140.693 12.3148 140.693 25.7952C140.693 37.222 147.137 46.583 156.535 50.0055C161.215 51.7075 164.076 47.249 163.682 43.6785Z" fill="#66757F"/>
</svg>
